<svg xmlns="http://www.w3.org/2000/svg" xmlns:xlink="http://www.w3.org/1999/xlink" width="50" zoomAndPan="magnify" viewBox="0 0 375 374.999991" height="50" preserveAspectRatio="xMidYMid meet" version="1.0"><defs><g/></defs><g fill="#000000" fill-opacity="1"><g transform="translate(52.184345, 211.437105)"><g><path d="M 23.40625 1.28125 C 19.882812 1.28125 16.734375 0.515625 13.953125 -1.015625 C 12.597656 -1.753906 11.492188 -2.550781 10.640625 -3.40625 C 9.734375 -2.15625 8.738281 -1.191406 7.65625 -0.515625 C 7.144531 -0.171875 6.578125 0.140625 5.953125 0.421875 L 3.828125 0.421875 L 3.828125 -14.046875 L 7.234375 -14.046875 C 7.972656 -11.660156 9.050781 -9.445312 10.46875 -7.40625 C 13.476562 -3.03125 17.222656 -0.84375 21.703125 -0.84375 C 24.085938 -0.84375 25.890625 -1.425781 27.109375 -2.59375 C 28.328125 -3.757812 28.9375 -5.445312 28.9375 -7.65625 C 28.9375 -9.53125 28.097656 -11.101562 26.421875 -12.375 C 24.753906 -13.65625 22.128906 -15.234375 18.546875 -17.109375 C 15.484375 -18.640625 13 -20.015625 11.09375 -21.234375 C 9.195312 -22.453125 7.582031 -23.984375 6.25 -25.828125 C 4.914062 -27.671875 4.25 -29.84375 4.25 -32.34375 C 4.25 -35.75 5.707031 -38.515625 8.625 -40.640625 C 11.550781 -42.765625 16.050781 -43.828125 22.125 -43.828125 C 25.132812 -43.828125 27.914062 -43.035156 30.46875 -41.453125 C 31.71875 -40.710938 32.796875 -39.945312 33.703125 -39.15625 C 34.441406 -40.175781 35.4375 -41.140625 36.6875 -42.046875 C 37.644531 -42.609375 38.210938 -42.921875 38.390625 -42.984375 L 40.515625 -42.984375 L 40.515625 -28.515625 L 37.109375 -28.515625 C 36.253906 -30.953125 35.203125 -33.132812 33.953125 -35.0625 C 31.117188 -39.488281 27.742188 -41.703125 23.828125 -41.703125 C 22.296875 -41.703125 20.988281 -41.132812 19.90625 -40 C 18.832031 -38.863281 18.296875 -37.445312 18.296875 -35.75 C 18.296875 -33.59375 19.203125 -31.789062 21.015625 -30.34375 C 22.835938 -28.894531 25.59375 -27.234375 29.28125 -25.359375 C 32.28125 -23.828125 34.675781 -22.476562 36.46875 -21.3125 C 38.257812 -20.15625 39.789062 -18.722656 41.0625 -17.015625 C 42.34375 -15.316406 42.984375 -13.332031 42.984375 -11.0625 C 42.984375 -2.832031 36.457031 1.28125 23.40625 1.28125 Z M 23.40625 1.28125 "/></g></g></g><g fill="#000000" fill-opacity="1"><g transform="translate(98.1372, 211.437105)"><g><path d="M 3.40625 -1.28125 L 8.515625 -2.546875 L 8.515625 -57.015625 L 3.40625 -58.296875 L 3.40625 -59.578125 L 14.46875 -59.578125 C 19.570312 -59.578125 22.125 -57.023438 22.125 -51.921875 L 22.125 -38.296875 C 22.976562 -39.429688 23.859375 -40.335938 24.765625 -41.015625 C 27.203125 -42.890625 30.007812 -43.828125 33.1875 -43.828125 C 36.363281 -43.828125 39.210938 -43.160156 41.734375 -41.828125 C 44.265625 -40.492188 46.238281 -38.75 47.65625 -36.59375 C 49.070312 -34.4375 49.78125 -32.164062 49.78125 -29.78125 L 49.78125 -2.546875 L 54.890625 -1.28125 L 54.890625 0 L 43.828125 0 C 38.722656 0 36.171875 -2.550781 36.171875 -7.65625 L 36.171875 -29.78125 C 36.171875 -33.363281 35.53125 -36.101562 34.25 -38 C 32.976562 -39.90625 31.488281 -40.859375 29.78125 -40.859375 C 27.625 -40.859375 25.695312 -39.722656 24 -37.453125 C 23.257812 -36.484375 22.632812 -35.347656 22.125 -34.046875 L 22.125 -2.546875 L 27.234375 -1.28125 L 27.234375 0 L 3.40625 0 Z M 3.40625 -1.28125 "/></g></g></g><g fill="#000000" fill-opacity="1"><g transform="translate(154.727289, 211.437105)"><g><path d="M 20 1.28125 C 14.945312 1.28125 11.054688 0.203125 8.328125 -1.953125 C 5.609375 -4.109375 4.25 -6.863281 4.25 -10.21875 C 4.25 -12.425781 4.734375 -14.609375 5.703125 -16.765625 C 6.097656 -17.785156 6.609375 -18.722656 7.234375 -19.578125 C 9.554688 -20.140625 12.082031 -20.648438 14.8125 -21.109375 C 20.9375 -22.128906 26.351562 -22.753906 31.0625 -22.984375 L 31.0625 -25.53125 C 31.0625 -31.832031 30.296875 -36.171875 28.765625 -38.546875 C 27.234375 -40.929688 24.878906 -42.125 21.703125 -42.125 C 20.515625 -42.125 19.492188 -41.984375 18.640625 -41.703125 L 17.453125 -41.28125 L 17.453125 -28.515625 L 16.34375 -28.25 C 15.4375 -28.144531 14.671875 -28.09375 14.046875 -28.09375 C 12.117188 -28.09375 10.570312 -28.671875 9.40625 -29.828125 C 8.238281 -30.992188 7.65625 -32.539062 7.65625 -34.46875 C 7.65625 -37.082031 8.972656 -39.296875 11.609375 -41.109375 C 14.253906 -42.921875 18.1875 -43.828125 23.40625 -43.828125 C 27.832031 -43.828125 31.644531 -43.046875 34.84375 -41.484375 C 38.050781 -39.929688 40.492188 -37.773438 42.171875 -35.015625 C 43.847656 -32.265625 44.6875 -29.101562 44.6875 -25.53125 L 44.6875 -2.546875 L 49.78125 -1.28125 L 49.78125 0 L 42.125 0 C 38.71875 0 36.082031 -1.050781 34.21875 -3.15625 C 33.414062 -4 32.789062 -5.078125 32.34375 -6.390625 C 31.550781 -4.960938 30.613281 -3.679688 29.53125 -2.546875 C 26.976562 0.00390625 23.800781 1.28125 20 1.28125 Z M 23.40625 -1.703125 C 25.5 -1.703125 27.398438 -2.835938 29.109375 -5.109375 C 29.734375 -5.960938 30.382812 -7.097656 31.0625 -8.515625 L 31.0625 -20.859375 C 28.457031 -20.859375 25.960938 -20.710938 23.578125 -20.421875 C 21.816406 -20.191406 20.625 -20.050781 20 -20 C 19.71875 -19.375 19.4375 -18.523438 19.15625 -17.453125 C 18.582031 -15.296875 18.296875 -13.164062 18.296875 -11.0625 C 18.296875 -7.882812 18.773438 -5.53125 19.734375 -4 C 20.703125 -2.46875 21.925781 -1.703125 23.40625 -1.703125 Z M 23.40625 -1.703125 "/></g></g></g><g fill="#000000" fill-opacity="1"><g transform="translate(206.211495, 211.437105)"><g><path d="M 3.40625 -1.28125 L 8.515625 -2.546875 L 8.515625 -40 L 3.40625 -41.28125 L 3.40625 -42.5625 L 11.0625 -42.5625 C 14.40625 -42.5625 17.046875 -41.484375 18.984375 -39.328125 C 19.710938 -38.472656 20.335938 -37.421875 20.859375 -36.171875 C 21.703125 -37.421875 22.75 -38.554688 24 -39.578125 C 26.832031 -41.847656 30.007812 -42.984375 33.53125 -42.984375 C 36.539062 -42.984375 38.796875 -42.285156 40.296875 -40.890625 C 41.804688 -39.503906 42.5625 -37.503906 42.5625 -34.890625 C 42.5625 -32.960938 41.976562 -31.414062 40.8125 -30.25 C 39.644531 -29.09375 38.097656 -28.515625 36.171875 -28.515625 C 35.378906 -28.515625 34.582031 -28.570312 33.78125 -28.6875 L 32.765625 -28.9375 L 32.765625 -40.859375 C 29.867188 -40.859375 27.234375 -39.722656 24.859375 -37.453125 C 23.722656 -36.316406 22.8125 -35.179688 22.125 -34.046875 L 22.125 -2.546875 L 27.234375 -1.28125 L 27.234375 0 L 3.40625 0 Z M 3.40625 -1.28125 "/></g></g></g><g fill="#000000" fill-opacity="1"><g transform="translate(249.185916, 211.437105)"><g><path d="M 2.546875 15.75 L 7.65625 14.46875 L 7.65625 -40 L 2.546875 -41.28125 L 2.546875 -42.5625 L 10.21875 -42.5625 C 13.5625 -42.5625 16.195312 -41.484375 18.125 -39.328125 C 18.863281 -38.472656 19.488281 -37.421875 20 -36.171875 C 20.738281 -37.648438 21.675781 -38.925781 22.8125 -40 C 25.363281 -42.550781 28.539062 -43.828125 32.34375 -43.828125 C 35.6875 -43.828125 38.660156 -42.960938 41.265625 -41.234375 C 43.878906 -39.503906 45.953125 -36.953125 47.484375 -33.578125 C 49.015625 -30.203125 49.78125 -26.101562 49.78125 -21.28125 C 49.78125 -14.019531 48.09375 -8.441406 44.71875 -4.546875 C 41.34375 -0.660156 36.789062 1.28125 31.0625 1.28125 C 28.34375 1.28125 25.960938 0.710938 23.921875 -0.421875 C 23.066406 -0.816406 22.1875 -1.382812 21.28125 -2.125 L 21.28125 14.46875 L 26.390625 15.75 L 26.390625 17.015625 L 2.546875 17.015625 Z M 27.65625 -1.28125 C 30.09375 -1.28125 31.976562 -2.695312 33.3125 -5.53125 C 34.65625 -8.363281 35.328125 -13.613281 35.328125 -21.28125 C 35.328125 -28.59375 34.710938 -33.679688 33.484375 -36.546875 C 32.265625 -39.421875 30.75 -40.859375 28.9375 -40.859375 C 26.78125 -40.859375 24.851562 -39.722656 23.15625 -37.453125 C 22.414062 -36.484375 21.789062 -35.347656 21.28125 -34.046875 L 21.28125 -4.6875 C 22.070312 -3.882812 22.695312 -3.316406 23.15625 -2.984375 C 24.6875 -1.847656 26.1875 -1.28125 27.65625 -1.28125 Z M 27.65625 -1.28125 "/></g></g></g><g fill="#000000" fill-opacity="1"><g transform="translate(302.372088, 211.437105)"><g><path d="M 10.21875 0.84375 C 8.507812 0.84375 7.015625 0.207031 5.734375 -1.0625 C 4.460938 -2.34375 3.828125 -3.832031 3.828125 -5.53125 C 3.828125 -7.226562 4.460938 -8.71875 5.734375 -10 C 7.015625 -11.28125 8.507812 -11.921875 10.21875 -11.921875 C 11.914062 -11.921875 13.398438 -11.28125 14.671875 -10 C 15.953125 -8.71875 16.59375 -7.226562 16.59375 -5.53125 C 16.59375 -3.832031 15.953125 -2.34375 14.671875 -1.0625 C 13.398438 0.207031 11.914062 0.84375 10.21875 0.84375 Z M 10.21875 0.84375 "/></g></g></g><g fill="#000000" fill-opacity="1"><g transform="translate(77.959713, 236.058161)"><g><path d="M 1.0625 -0.3125 L 2.34375 -0.640625 L 2.34375 -14.25 L 1.0625 -14.5625 L 1.0625 -14.890625 L 12.4375 -14.890625 L 12.4375 -11.0625 L 11.796875 -11.0625 C 11.523438 -11.269531 11.289062 -11.535156 11.09375 -11.859375 C 10.644531 -12.628906 10.421875 -13.460938 10.421875 -14.359375 L 5.84375 -14.359375 L 5.84375 -7.65625 L 8.296875 -7.65625 C 8.390625 -8.195312 8.570312 -8.703125 8.84375 -9.171875 C 8.957031 -9.378906 9.09375 -9.582031 9.25 -9.78125 L 9.890625 -9.78125 L 9.890625 -5 L 9.25 -5 C 9.09375 -5.195312 8.957031 -5.398438 8.84375 -5.609375 C 8.570312 -6.078125 8.390625 -6.582031 8.296875 -7.125 L 5.84375 -7.125 L 5.84375 -0.640625 L 7.125 -0.3125 L 7.125 0 L 1.0625 0 Z M 1.0625 -0.3125 "/></g></g></g><g fill="#000000" fill-opacity="1"><g transform="translate(99.442679, 236.058161)"><g><path d="M 1.0625 -0.3125 L 2.34375 -0.640625 L 2.34375 -14.25 L 1.0625 -14.5625 L 1.0625 -14.890625 L 6.703125 -14.890625 C 9.109375 -14.890625 10.84375 -14.523438 11.90625 -13.796875 C 12.96875 -13.066406 13.5 -12.046875 13.5 -10.734375 C 13.5 -9.859375 13.265625 -9.144531 12.796875 -8.59375 C 12.328125 -8.050781 11.726562 -7.644531 11 -7.375 C 10.21875 -7.082031 9.382812 -6.925781 8.5 -6.90625 L 8.5 -6.8125 C 9.03125 -6.78125 9.492188 -6.703125 9.890625 -6.578125 C 10.878906 -6.265625 11.550781 -5.703125 11.90625 -4.890625 L 13.828125 -0.640625 L 14.890625 -0.3125 L 14.890625 0 L 11.90625 0 C 10.75 0 9.898438 -0.601562 9.359375 -1.8125 L 7.234375 -6.59375 L 5.84375 -6.59375 L 5.84375 -0.640625 L 7.34375 -0.3125 L 7.34375 0 L 1.0625 0 Z M 6.703125 -7.125 C 7.691406 -7.125 8.46875 -7.4375 9.03125 -8.0625 C 9.601562 -8.6875 9.890625 -9.578125 9.890625 -10.734375 C 9.890625 -11.898438 9.601562 -12.796875 9.03125 -13.421875 C 8.46875 -14.046875 7.691406 -14.359375 6.703125 -14.359375 L 5.84375 -14.359375 L 5.84375 -7.125 Z M 6.703125 -7.125 "/></g></g></g><g fill="#000000" fill-opacity="1"><g transform="translate(122.839546, 236.058161)"><g><path d="M -0.421875 -0.3125 L 1.28125 -0.953125 L 7.125 -15.09375 L 7.765625 -15.09375 L 13.828125 -0.640625 L 14.890625 -0.3125 L 14.890625 0 L 12.328125 0 C 11.597656 0 11 -0.164062 10.53125 -0.5 C 10.0625 -0.832031 9.710938 -1.269531 9.484375 -1.8125 L 8.40625 -4.359375 L 3.3125 -4.359375 L 1.90625 -0.953125 L 3.515625 -0.3125 L 3.515625 0 L -0.421875 0 Z M 3.53125 -4.890625 L 8.1875 -4.890625 L 5.84375 -10.484375 Z M 3.53125 -4.890625 "/></g></g></g><g fill="#000000" fill-opacity="1"><g transform="translate(145.811103, 236.058161)"><g><path d="M 6.90625 0.3125 C 5.832031 0.3125 4.84375 0.0078125 3.9375 -0.59375 C 3.03125 -1.207031 2.304688 -2.097656 1.765625 -3.265625 C 1.222656 -4.429688 0.953125 -5.820312 0.953125 -7.4375 C 0.953125 -9.070312 1.234375 -10.472656 1.796875 -11.640625 C 2.359375 -12.804688 3.144531 -13.691406 4.15625 -14.296875 C 5.164062 -14.898438 6.335938 -15.203125 7.671875 -15.203125 C 8.484375 -15.203125 9.300781 -14.96875 10.125 -14.5 C 10.4375 -14.332031 10.75 -14.109375 11.0625 -13.828125 C 11.300781 -14.191406 11.546875 -14.476562 11.796875 -14.6875 C 12.054688 -14.875 12.203125 -14.972656 12.234375 -14.984375 L 12.765625 -14.984375 L 12.765625 -10.953125 L 11.90625 -10.953125 C 11.71875 -11.628906 11.441406 -12.242188 11.078125 -12.796875 C 10.734375 -13.335938 10.3125 -13.785156 9.8125 -14.140625 C 9.3125 -14.492188 8.734375 -14.671875 8.078125 -14.671875 C 7.097656 -14.671875 6.285156 -14.101562 5.640625 -12.96875 C 4.992188 -11.832031 4.671875 -9.988281 4.671875 -7.4375 C 4.671875 -4.882812 4.957031 -3.078125 5.53125 -2.015625 C 6.113281 -0.953125 6.859375 -0.421875 7.765625 -0.421875 C 8.285156 -0.421875 8.757812 -0.707031 9.1875 -1.28125 C 9.34375 -1.488281 9.503906 -1.769531 9.671875 -2.125 L 9.671875 -7.015625 L 8.40625 -7.34375 L 8.40625 -7.65625 L 14.453125 -7.65625 L 14.453125 -7.34375 L 13.1875 -7.015625 L 13.1875 0.109375 L 12.859375 0.109375 C 11.828125 0.109375 11.039062 -0.175781 10.5 -0.75 C 10.257812 -1 10.09375 -1.28125 10 -1.59375 C 9.800781 -1.238281 9.566406 -0.921875 9.296875 -0.640625 C 8.660156 -0.00390625 7.863281 0.3125 6.90625 0.3125 Z M 6.90625 0.3125 "/></g></g></g><g fill="#000000" fill-opacity="1"><g transform="translate(169.20797, 236.058161)"><g><path d="M 1.0625 -0.3125 L 2.34375 -0.640625 L 2.34375 -14.25 L 1.0625 -14.5625 L 1.0625 -14.890625 L 6.703125 -14.890625 C 9.109375 -14.890625 10.84375 -14.523438 11.90625 -13.796875 C 12.96875 -13.066406 13.5 -12.046875 13.5 -10.734375 C 13.5 -9.859375 13.265625 -9.144531 12.796875 -8.59375 C 12.328125 -8.050781 11.726562 -7.644531 11 -7.375 C 10.21875 -7.082031 9.382812 -6.925781 8.5 -6.90625 L 8.5 -6.8125 C 9.03125 -6.78125 9.492188 -6.703125 9.890625 -6.578125 C 10.878906 -6.265625 11.550781 -5.703125 11.90625 -4.890625 L 13.828125 -0.640625 L 14.890625 -0.3125 L 14.890625 0 L 11.90625 0 C 10.75 0 9.898438 -0.601562 9.359375 -1.8125 L 7.234375 -6.59375 L 5.84375 -6.59375 L 5.84375 -0.640625 L 7.34375 -0.3125 L 7.34375 0 L 1.0625 0 Z M 6.703125 -7.125 C 7.691406 -7.125 8.46875 -7.4375 9.03125 -8.0625 C 9.601562 -8.6875 9.890625 -9.578125 9.890625 -10.734375 C 9.890625 -11.898438 9.601562 -12.796875 9.03125 -13.421875 C 8.46875 -14.046875 7.691406 -14.359375 6.703125 -14.359375 L 5.84375 -14.359375 L 5.84375 -7.125 Z M 6.703125 -7.125 "/></g></g></g><g fill="#000000" fill-opacity="1"><g transform="translate(192.604837, 236.058161)"><g><path d="M -0.421875 -0.3125 L 1.28125 -0.953125 L 7.125 -15.09375 L 7.765625 -15.09375 L 13.828125 -0.640625 L 14.890625 -0.3125 L 14.890625 0 L 12.328125 0 C 11.597656 0 11 -0.164062 10.53125 -0.5 C 10.0625 -0.832031 9.710938 -1.269531 9.484375 -1.8125 L 8.40625 -4.359375 L 3.3125 -4.359375 L 1.90625 -0.953125 L 3.515625 -0.3125 L 3.515625 0 L -0.421875 0 Z M 3.53125 -4.890625 L 8.1875 -4.890625 L 5.84375 -10.484375 Z M 3.53125 -4.890625 "/></g></g></g><g fill="#000000" fill-opacity="1"><g transform="translate(215.576394, 236.058161)"><g><path d="M 2.984375 -11.265625 L 2.984375 -0.953125 L 4.671875 -0.3125 L 4.671875 0 L 0.640625 0 L 0.640625 -0.3125 L 2.34375 -0.953125 L 2.34375 -14.140625 L 0.84375 -14.5625 L 0.84375 -14.890625 L 3.078125 -14.890625 C 3.828125 -14.890625 4.414062 -14.753906 4.84375 -14.484375 C 5.269531 -14.210938 5.675781 -13.847656 6.0625 -13.390625 L 12.859375 -5.421875 L 12.859375 -13.921875 L 11.171875 -14.5625 L 11.171875 -14.890625 L 15.203125 -14.890625 L 15.203125 -14.5625 L 13.5 -13.921875 L 13.5 0.3125 L 12.859375 0.3125 Z M 2.984375 -11.265625 "/></g></g></g><g fill="#000000" fill-opacity="1"><g transform="translate(239.823905, 236.058161)"><g><path d="M 8.1875 0.3125 C 5.914062 0.3125 4.140625 -0.359375 2.859375 -1.703125 C 1.585938 -3.046875 0.953125 -4.957031 0.953125 -7.4375 C 0.953125 -9.070312 1.234375 -10.472656 1.796875 -11.640625 C 2.359375 -12.804688 3.144531 -13.691406 4.15625 -14.296875 C 5.164062 -14.898438 6.335938 -15.203125 7.671875 -15.203125 C 8.484375 -15.203125 9.300781 -14.96875 10.125 -14.5 C 10.4375 -14.332031 10.75 -14.109375 11.0625 -13.828125 C 11.300781 -14.191406 11.546875 -14.476562 11.796875 -14.6875 C 12.054688 -14.875 12.203125 -14.972656 12.234375 -14.984375 L 12.765625 -14.984375 L 12.765625 -10.953125 L 11.90625 -10.953125 C 11.71875 -11.628906 11.441406 -12.242188 11.078125 -12.796875 C 10.734375 -13.335938 10.3125 -13.785156 9.8125 -14.140625 C 9.3125 -14.492188 8.734375 -14.671875 8.078125 -14.671875 C 7.097656 -14.671875 6.285156 -14.101562 5.640625 -12.96875 C 4.992188 -11.832031 4.671875 -9.988281 4.671875 -7.4375 C 4.671875 -4.84375 5.019531 -2.988281 5.71875 -1.875 C 6.425781 -0.769531 7.390625 -0.21875 8.609375 -0.21875 C 9.273438 -0.21875 9.910156 -0.40625 10.515625 -0.78125 C 11.117188 -1.15625 11.609375 -1.65625 11.984375 -2.28125 C 12.359375 -2.90625 12.546875 -3.5625 12.546875 -4.25 L 13.078125 -4.25 C 13.078125 -3.445312 12.859375 -2.691406 12.421875 -1.984375 C 11.992188 -1.285156 11.40625 -0.726562 10.65625 -0.3125 C 9.914062 0.101562 9.09375 0.3125 8.1875 0.3125 Z M 8.1875 0.3125 "/></g></g></g><g fill="#000000" fill-opacity="1"><g transform="translate(262.157498, 236.058161)"><g><path d="M 1.0625 -0.3125 L 2.34375 -0.640625 L 2.34375 -14.25 L 1.0625 -14.5625 L 1.0625 -14.890625 L 12.4375 -14.890625 L 12.4375 -11.0625 L 11.796875 -11.0625 C 11.523438 -11.269531 11.289062 -11.535156 11.09375 -11.859375 C 10.644531 -12.628906 10.421875 -13.460938 10.421875 -14.359375 L 5.84375 -14.359375 L 5.84375 -7.65625 L 8.296875 -7.65625 C 8.390625 -8.195312 8.570312 -8.703125 8.84375 -9.171875 C 8.957031 -9.378906 9.09375 -9.582031 9.25 -9.78125 L 9.890625 -9.78125 L 9.890625 -5 L 9.25 -5 C 9.09375 -5.195312 8.957031 -5.398438 8.84375 -5.609375 C 8.570312 -6.078125 8.390625 -6.582031 8.296875 -7.125 L 5.84375 -7.125 L 5.84375 -0.53125 L 10.84375 -0.53125 C 10.84375 -1.425781 11.070312 -2.253906 11.53125 -3.015625 C 11.726562 -3.347656 11.960938 -3.617188 12.234375 -3.828125 L 12.859375 -3.828125 L 12.859375 0 L 1.0625 0 Z M 1.0625 -0.3125 "/></g></g></g><g fill="#000000" fill-opacity="1"><g transform="translate(284.384752, 236.058161)"><g><path d="M 6.265625 0.3125 C 5.265625 0.3125 4.320312 0.0859375 3.4375 -0.359375 C 3.039062 -0.554688 2.710938 -0.789062 2.453125 -1.0625 C 2.242188 -0.738281 1.992188 -0.445312 1.703125 -0.1875 C 1.441406 -0.0078125 1.300781 0.0859375 1.28125 0.109375 L 0.75 0.109375 L 0.75 -3.9375 L 1.59375 -3.9375 C 1.800781 -3.238281 2.097656 -2.613281 2.484375 -2.0625 C 3.347656 -0.832031 4.46875 -0.21875 5.84375 -0.21875 C 6.65625 -0.21875 7.300781 -0.457031 7.78125 -0.9375 C 8.257812 -1.414062 8.5 -2.0625 8.5 -2.875 C 8.5 -3.34375 8.359375 -3.757812 8.078125 -4.125 C 7.804688 -4.488281 7.460938 -4.8125 7.046875 -5.09375 C 6.640625 -5.382812 6.070312 -5.742188 5.34375 -6.171875 C 4.40625 -6.691406 3.644531 -7.164062 3.0625 -7.59375 C 2.476562 -8.019531 1.976562 -8.554688 1.5625 -9.203125 C 1.15625 -9.847656 0.953125 -10.609375 0.953125 -11.484375 C 0.953125 -12.179688 1.144531 -12.804688 1.53125 -13.359375 C 1.925781 -13.921875 2.515625 -14.367188 3.296875 -14.703125 C 4.078125 -15.035156 5.035156 -15.203125 6.171875 -15.203125 C 6.992188 -15.203125 7.816406 -14.96875 8.640625 -14.5 C 8.953125 -14.332031 9.257812 -14.109375 9.5625 -13.828125 C 9.8125 -14.191406 10.0625 -14.476562 10.3125 -14.6875 C 10.570312 -14.875 10.710938 -14.972656 10.734375 -14.984375 L 11.265625 -14.984375 L 11.265625 -10.953125 L 10.421875 -10.953125 C 10.234375 -11.628906 9.957031 -12.242188 9.59375 -12.796875 C 9.25 -13.335938 8.828125 -13.785156 8.328125 -14.140625 C 7.828125 -14.492188 7.25 -14.671875 6.59375 -14.671875 C 6.039062 -14.671875 5.566406 -14.453125 5.171875 -14.015625 C 4.773438 -13.578125 4.578125 -13.015625 4.578125 -12.328125 C 4.578125 -11.804688 4.726562 -11.335938 5.03125 -10.921875 C 5.332031 -10.503906 5.707031 -10.140625 6.15625 -9.828125 C 6.601562 -9.515625 7.207031 -9.140625 7.96875 -8.703125 C 8.863281 -8.191406 9.585938 -7.734375 10.140625 -7.328125 C 10.691406 -6.929688 11.160156 -6.4375 11.546875 -5.84375 C 11.929688 -5.257812 12.125 -4.585938 12.125 -3.828125 C 12.125 -3.054688 11.898438 -2.351562 11.453125 -1.71875 C 11.015625 -1.09375 10.359375 -0.597656 9.484375 -0.234375 C 8.609375 0.128906 7.535156 0.3125 6.265625 0.3125 Z M 6.265625 0.3125 "/></g></g></g></svg>